<svg width="82" height="40" viewBox="0 0 82 40" fill="none" xmlns="http://www.w3.org/2000/svg">
<g clip-path="url(#clip0_6_13)">
<path d="M30.025 28.7104H81.5" stroke="black" stroke-width="1.88976"/>
<path d="M41.1001 14.3874L39.8718 19.2029H39.243C39.3014 18.9905 39.3356 18.8325 39.3599 18.7238C39.4818 18.2398 39.5452 17.8447 39.5452 17.5237C39.5452 17.0693 39.3843 16.7878 39.0528 16.6643C38.7262 16.5458 37.9366 16.4865 36.6887 16.4865H34.0662L33.8274 17.3508C32.8622 20.9908 31.7947 24.0283 30.6199 26.4632C29.4452 28.8981 27.9682 31.1207 26.1987 33.1308C24.3903 35.2002 22.3478 36.8252 20.0519 37.9858C17.7609 39.1514 15.4796 39.7342 13.2276 39.7342C10.6685 39.7342 8.37258 39.0872 6.32527 37.8031C4.5022 36.6671 3.06909 35.062 2.05519 32.9925C1.03154 30.9132 0.519714 28.6018 0.519714 26.0681C0.519714 22.7046 1.4215 20.0179 3.22995 17.9929C5.02865 15.9728 7.43179 14.9653 10.4296 14.9653C13.7882 14.9653 17.3758 16.7878 21.1877 20.4426C22.4648 21.6576 24.2245 23.6233 26.4717 26.3397L26.9981 26.962C27.549 25.8261 27.8268 24.6308 27.8268 23.3714C27.8268 21.4156 27.1054 19.8005 25.6723 18.5164C24.2343 17.2273 22.343 16.5161 19.9983 16.363C20.281 15.795 20.5053 15.1579 20.6661 14.4516L32.7403 14.3874C32.8281 14.0368 32.8963 13.7799 32.9451 13.6071C33.4423 11.5722 33.8517 10.1103 34.1686 9.21633C34.4854 8.32731 34.8949 7.5025 35.3969 6.75672C36.328 5.3343 37.6051 3.9909 39.2283 2.71664C40.8857 1.42263 42.2895 0.770691 43.4497 0.770691C43.6788 0.770691 43.9664 0.795386 44.3173 0.849714C44.176 1.87208 43.8348 3.42786 43.3132 5.52692L43.1962 6.03563H42.5625C42.7624 5.18119 42.8598 4.58357 42.8598 4.23291C42.8598 3.37353 42.4699 2.94878 41.6851 2.94878C40.4713 2.94878 39.2966 3.48712 38.1511 4.56382C37.5466 5.13674 37.0787 5.83807 36.7374 6.65794C36.3962 7.48275 35.938 9.03359 35.3628 11.3104L34.7096 13.9083L34.5927 14.3874H41.1001ZM32.2626 16.4865L24.478 16.4223C25.682 17.0693 26.652 18.0077 27.4027 19.2474C28.1534 20.4821 28.5239 21.7811 28.5239 23.1294C28.5239 25.2383 27.8609 27.5695 26.5351 30.123C23.313 25.6285 20.1787 22.1861 17.1321 19.7907C14.0904 17.4002 11.3265 16.2 8.83566 16.2C6.68112 16.2 4.89216 17.0199 3.47855 18.6596C2.06494 20.3043 1.35813 22.3787 1.35813 24.8877C1.35813 28.7055 2.61089 31.8467 5.12614 34.3063C7.64627 36.7708 10.8488 38.0056 14.7485 38.0056C19.0722 38.0056 22.7427 36.1584 25.7454 32.4789C28.7481 28.7895 30.9221 23.4603 32.2626 16.4865Z" fill="black" stroke="black" stroke-width="0.288"/>
<path d="M42.0992 25.6335C42.0163 26.0977 42.3283 26.4978 42.7963 26.5324C43.2691 26.5669 43.7273 26.2261 43.8053 25.7619C43.8882 25.2828 43.5811 24.8729 43.1082 24.8383C42.6354 24.8087 42.187 25.1643 42.0992 25.6335ZM53.7103 23.8653C53.7201 23.7221 53.5933 23.4751 53.5056 23.5393C52.8865 24.295 50.6784 26.1323 48.6554 26.2607C47.778 26.3249 47.1005 25.7964 47.0371 25.1445C46.6959 22.1712 50.1519 17.4298 51.7703 17.3212C52.326 17.2866 52.5843 17.5385 52.6184 17.8645C52.7452 18.6251 52.1554 19.9685 51.9555 20.5117C51.9214 20.5957 51.9116 20.6945 52.0189 20.6747C52.8085 20.6303 54.2222 18.7732 54.149 18.1904C54.0613 17.5829 52.9402 16.6248 51.5119 16.7236C48.3873 16.931 45.1945 21.9539 45.4968 24.6901C45.6869 26.4138 48.129 27.4312 49.5329 27.2139C51.2584 26.9423 53.5251 24.374 53.7103 23.8653ZM61.1635 18.4374C61.2463 19.1091 60.4128 20.1512 59.0333 20.7291C58.5702 20.9217 58.0584 21.0106 57.5515 21.0649C58.1656 19.7166 58.6336 18.5362 59.3307 17.5582C60.1886 17.6027 61.0757 17.8003 61.1635 18.4374ZM54.1247 17.1483C53.9687 17.2026 53.6226 17.82 53.6226 18.0028C53.6226 18.0274 53.6323 18.0472 53.647 18.0472C54.071 17.9089 55.7333 17.657 57.6392 17.5829C57.0835 18.546 56.4596 19.9339 55.8746 21.2575C55.8064 21.2724 55.4018 21.2477 55.3287 21.2575C55.1776 21.4106 55.4847 21.8008 55.626 21.8996C55.2068 22.917 54.3099 25.2976 54.3099 25.8607C54.3099 26.1224 55.2409 26.804 55.6991 26.804C55.6601 26.7842 55.6358 26.7151 55.6358 26.6064C55.6358 25.9792 56.5668 23.3665 57.2541 21.7712L58.0243 21.6378C58.4337 23.732 59.7791 27.5646 60.2714 27.9301C60.6468 28.1178 61.8605 27.3473 62.0409 27.0312C61.2805 27.0509 59.6865 23.7221 58.9992 21.4008C59.4818 21.2822 59.9302 21.1637 60.2519 21.0303C62.1676 20.2944 63.0158 19.2523 62.9183 18.5559C62.8013 17.6669 61.3536 17.2125 59.355 17.0495C59.0723 16.852 58.6141 16.6495 58.3996 16.6495C58.3119 16.6495 58.2193 16.7038 58.1656 16.768C58.112 16.8322 58.0584 16.8964 58.0145 16.9754C57.7562 16.9606 57.4978 16.9606 57.2346 16.9606C55.6358 16.9606 54.5682 17.094 54.1247 17.1483ZM70.157 23.8653C70.1667 23.7221 70.04 23.4751 69.9522 23.5393C69.3332 24.295 67.125 26.1323 65.1021 26.2607C64.2247 26.3249 63.552 25.7964 63.4838 25.1445C63.1425 22.1712 66.6035 17.4298 68.2169 17.3212C68.7775 17.2866 69.031 17.5385 69.0651 17.8645C69.1918 18.6251 68.6069 19.9685 68.4021 20.5117C68.368 20.5957 68.3583 20.6945 68.4655 20.6747C69.2601 20.6303 70.6737 18.7732 70.5957 18.1904C70.5128 17.5829 69.3868 16.6248 67.9634 16.7236C64.834 16.931 61.6461 21.9539 61.9434 24.6901C62.1384 26.4138 64.5805 27.4312 65.9795 27.2139C67.7051 26.9423 69.9766 24.374 70.157 23.8653ZM70.5421 21.3662C71.166 21.2378 71.9118 21.1192 72.7161 21.0205C72.1897 22.2552 70.9613 24.8827 70.9515 25.9594C70.9905 26.2261 71.8923 27.0114 72.3115 26.9769C73.7788 26.6608 76.2063 26.3348 78.3511 26.3052C78.4875 26.2706 78.78 25.8903 78.7118 25.7718C77.9757 25.6532 74.9876 25.6532 72.4383 25.8903C72.8136 24.6358 73.6569 22.5812 74.4076 20.8476C76.0064 20.7192 77.6735 20.6649 79.0432 20.7291C79.1651 20.65 79.4186 20.2846 79.3016 20.2154C78.0927 20.1314 76.3476 20.1117 74.7195 20.1611C75.2021 19.1338 75.7237 18.0917 75.9284 17.8003C77.1714 17.6373 78.6728 17.5039 80.2862 17.6027C80.4032 17.5385 80.7055 17.1779 80.608 17.1137C78.4875 16.9063 75.1582 17.0051 74.1005 17.0693C73.9152 17.1681 74.1005 17.6768 74.2272 17.9385C73.9055 18.5164 73.4765 19.361 73.0719 20.25C72.2676 20.3043 71.5706 20.3784 71.0685 20.4772C70.8199 20.6204 70.4251 21.2477 70.5421 21.3662Z" fill="black" stroke="black" stroke-width="0.288"/>
<path d="M81.3635 14.7085L80.7883 16.3383C80.3837 16.2544 45.1117 16.2148 44.8046 16.2148C43.5664 16.2148 42.2454 17.1779 40.8367 19.0943C40.1786 20.0129 39.6132 21.0056 39.1355 22.0823C38.6627 23.159 38.0777 24.8087 37.3758 27.0164L37.1954 27.5646C36.5081 27.7177 35.8452 27.9004 35.2164 28.1178L35.3967 27.6288L36.8103 23.8456C38.146 20.2055 38.8138 18.062 38.8138 17.415C38.8138 17.0792 38.4628 16.0074 38.1703 16.0074C38.0095 16.0074 37.6488 16.1506 37.0882 16.4371L36.8786 15.9383C38.3702 15.2024 39.9154 15.2913 41.095 14.3973C41.1438 14.5899 41.173 14.7677 41.173 14.9357C41.173 15.7605 40.8026 17.1483 40.0568 19.0893L40.4419 18.6349C42.923 15.8741 44.6778 14.4911 45.7161 14.4911C45.9355 14.4911 81.0954 14.5652 81.3635 14.7085Z" fill="black" stroke="black" stroke-width="0.288"/>
<path d="M30.025 37.3339H81.3878" stroke="black" stroke-width="1.88976"/>
<path d="M30.103 38.3118H30.5124L30.8488 39.3391L31.19 38.3118H31.5946V39.6503H31.3216L31.346 38.6081L31.0048 39.6503H30.7123L30.3613 38.5933L30.3906 39.6503H30.103V38.3118ZM31.7847 38.9687C31.7847 38.7366 31.8383 38.5637 31.9455 38.455C32.0528 38.3414 32.2185 38.2822 32.4427 38.2822C32.667 38.2822 32.8327 38.3414 32.9399 38.455C33.0472 38.5686 33.1008 38.7415 33.1008 38.9786C33.1008 39.2156 33.0472 39.3934 32.9399 39.507C32.8327 39.6206 32.667 39.6799 32.4427 39.6799C32.2185 39.6799 32.0479 39.6206 31.9407 39.507C31.8383 39.3934 31.7847 39.2107 31.7847 38.9687ZM32.4427 38.5143C32.3209 38.5143 32.2331 38.5489 32.1746 38.6279C32.1161 38.702 32.0869 38.8156 32.0869 38.9687C32.0869 39.1317 32.1161 39.2551 32.1746 39.3292C32.2283 39.4083 32.3209 39.4478 32.4427 39.4478C32.5646 39.4478 32.6523 39.4083 32.7108 39.3342C32.7693 39.2551 32.7986 39.1366 32.7986 38.9786C32.7986 38.8205 32.7693 38.702 32.7108 38.6279C32.6523 38.5538 32.5646 38.5143 32.4427 38.5143ZM33.5639 38.3118V39.1119C33.5639 39.2354 33.5883 39.3243 33.6321 39.3737C33.676 39.4231 33.754 39.4478 33.8612 39.4478C33.9733 39.4478 34.0465 39.4231 34.0903 39.3737C34.1391 39.3243 34.1586 39.2403 34.1586 39.1119V38.3118H34.4364V39.1218C34.4364 39.2156 34.4315 39.2897 34.4169 39.349C34.4072 39.4033 34.3877 39.4478 34.3584 39.4823C34.3048 39.5465 34.2414 39.591 34.1586 39.6206C34.0806 39.6503 33.9831 39.6651 33.8612 39.6651C33.7442 39.6651 33.6419 39.6503 33.5639 39.6206C33.481 39.591 33.4176 39.5465 33.364 39.4823C33.3348 39.4478 33.3153 39.4033 33.3055 39.349C33.2958 39.2947 33.286 39.2206 33.286 39.1218V38.3118H33.5639ZM35.231 39.6503C35.1091 39.6503 35.0165 39.6404 34.958 39.6206C34.8946 39.5959 34.841 39.5614 34.7923 39.512C34.7484 39.4626 34.7191 39.4132 34.6996 39.3539C34.685 39.2947 34.6753 39.2107 34.6753 39.107V38.3118H34.9531V39.0971C34.9531 39.1761 34.958 39.2304 34.9629 39.265C34.9677 39.2947 34.9824 39.3193 34.997 39.3391C35.0262 39.3737 35.0555 39.3934 35.0945 39.4083C35.1335 39.4231 35.1871 39.428 35.2553 39.428H35.5819V39.6503H35.231ZM36.3326 38.5439H36.0109V39.4181H36.3326C36.4545 39.4181 36.5373 39.3836 36.5861 39.3243C36.63 39.2601 36.6543 39.1465 36.6543 38.9786C36.6543 38.8156 36.63 38.702 36.5861 38.6378C36.5373 38.5736 36.4545 38.5439 36.3326 38.5439ZM35.7282 38.3118H36.3375C36.5471 38.3118 36.7079 38.3661 36.8054 38.4797C36.9078 38.5933 36.9614 38.7662 36.9614 39.0033C36.9614 39.1267 36.9419 39.2304 36.9078 39.3193C36.8737 39.4083 36.8249 39.4774 36.7567 39.5317C36.7031 39.5762 36.6495 39.6058 36.591 39.6256C36.5276 39.6404 36.4496 39.6503 36.3424 39.6503H35.7282V38.3118ZM37.444 39.6503H37.1515V38.3118H37.444V39.6503ZM37.717 38.3118H38.0728L38.6139 39.2749L38.5993 38.3118H38.882V39.6503H38.5603L37.9899 38.6378L38.0046 39.6503H37.717V38.3118ZM39.6327 39.0922V38.8551H40.2907V39.6503H39.6912C39.579 39.6503 39.4962 39.6404 39.4377 39.6206C39.3792 39.6058 39.3207 39.5762 39.2719 39.5317C39.2037 39.4774 39.155 39.4083 39.1208 39.3193C39.0867 39.2304 39.0672 39.1267 39.0672 39.0033C39.0672 38.7662 39.1208 38.5933 39.2183 38.4797C39.3207 38.3661 39.4767 38.3118 39.6912 38.3118H40.2907V38.5439H39.6912C39.5839 38.5439 39.5011 38.5785 39.4523 38.6476C39.4036 38.7217 39.3792 38.8353 39.3792 38.9934C39.3792 39.1366 39.4036 39.2453 39.4523 39.3095C39.5011 39.3737 39.5839 39.4083 39.6912 39.4083H40.0031V39.0922H39.6327ZM41.7775 38.5439C41.6751 38.5439 41.602 38.5686 41.5484 38.618C41.4996 38.6723 41.4704 38.7514 41.4655 38.8551H42.2357V39.0872H41.4606C41.4606 39.2058 41.485 39.2897 41.5337 39.3391C41.5825 39.3934 41.6653 39.4181 41.7775 39.4181H42.2357V39.6503H41.7628C41.6605 39.6503 41.5776 39.6404 41.5191 39.6256C41.4606 39.6058 41.4021 39.5762 41.3534 39.5317C41.2851 39.4774 41.2315 39.4083 41.1974 39.3193C41.1633 39.2304 41.1486 39.1267 41.1486 39.0033C41.1486 38.7662 41.1974 38.5933 41.2998 38.4797C41.4021 38.3661 41.5581 38.3118 41.7726 38.3118H42.2357V38.5439H41.7775ZM42.4745 38.3118H42.8304L43.3714 39.2749L43.3568 38.3118H43.6395V39.6503H43.3178L42.7475 38.6378L42.7621 39.6503H42.4745V38.3118ZM44.3902 39.0922V38.8551H45.0483V39.6503H44.4487C44.3415 39.6503 44.2537 39.6404 44.1952 39.6206C44.1367 39.6058 44.0831 39.5762 44.0295 39.5317C43.9612 39.4774 43.9125 39.4083 43.8784 39.3193C43.8443 39.2304 43.8248 39.1267 43.8248 39.0033C43.8248 38.7662 43.8784 38.5933 43.9807 38.4797C44.0782 38.3661 44.2391 38.3118 44.4487 38.3118H45.0483V38.5439H44.4487C44.3415 38.5439 44.2586 38.5785 44.2098 38.6476C44.1611 38.7217 44.1367 38.8353 44.1367 38.9934C44.1367 39.1366 44.1611 39.2453 44.2098 39.3095C44.2586 39.3737 44.3415 39.4083 44.4487 39.4083H44.7607V39.0922H44.3902ZM45.5698 39.6503H45.2774V38.3118H45.5698V39.6503ZM45.8428 38.3118H46.1987L46.7397 39.2749L46.7251 38.3118H47.0078V39.6503H46.6861L46.1158 38.6378L46.1304 39.6503H45.8428V38.3118ZM47.8219 38.5439C47.7195 38.5439 47.6464 38.5686 47.5928 38.618C47.544 38.6723 47.5148 38.7514 47.5099 38.8551H48.2801V39.0872H47.505C47.5099 39.2058 47.5343 39.2897 47.5781 39.3391C47.6269 39.3934 47.7098 39.4181 47.8219 39.4181H48.2801V39.6503H47.8072C47.7049 39.6503 47.622 39.6404 47.5635 39.6256C47.505 39.6058 47.4514 39.5762 47.3978 39.5317C47.3295 39.4774 47.2808 39.4083 47.2467 39.3193C47.2126 39.2304 47.1931 39.1267 47.1931 39.0033C47.1931 38.7662 47.2467 38.5933 47.3442 38.4797C47.4465 38.3661 47.6025 38.3118 47.817 38.3118H48.2801V38.5439H47.8219ZM49.0649 38.5439C48.9674 38.5439 48.8894 38.5686 48.8406 38.618C48.787 38.6723 48.7578 38.7514 48.7529 38.8551H49.5231V39.0872H48.7529C48.7529 39.2058 48.7773 39.2897 48.826 39.3391C48.8748 39.3934 48.9528 39.4181 49.0649 39.4181H49.5231V39.6503H49.0551C48.9479 39.6503 48.8699 39.6404 48.8114 39.6256C48.748 39.6058 48.6944 39.5762 48.6408 39.5317C48.5725 39.4774 48.5238 39.4083 48.4897 39.3193C48.4556 39.2304 48.4409 39.1267 48.4409 39.0033C48.4409 38.7662 48.4897 38.5933 48.592 38.4797C48.6895 38.3661 48.8504 38.3118 49.06 38.3118H49.5231V38.5439H49.0649ZM50.3859 38.5489H50.0447V38.8847H50.3859C50.4785 38.8847 50.5419 38.8748 50.5808 38.8501C50.615 38.8255 50.6345 38.781 50.6345 38.7168C50.6345 38.6575 50.615 38.6131 50.5808 38.5884C50.5467 38.5637 50.4785 38.5489 50.3859 38.5489ZM49.7668 38.3118H50.4492C50.6101 38.3118 50.7271 38.3414 50.8002 38.4056C50.8782 38.4748 50.9123 38.5736 50.9123 38.7119C50.9123 38.8156 50.8928 38.8995 50.8441 38.9637C50.8002 39.0279 50.732 39.0724 50.6491 39.0922L50.9757 39.6503H50.6637L50.3712 39.1218H50.0447V39.6503H49.7668V38.3118ZM52.2674 38.5489H51.5801C51.507 38.5489 51.4534 38.5637 51.4193 38.5933C51.3851 38.618 51.3656 38.6625 51.3656 38.7217C51.3656 38.7711 51.3803 38.8106 51.4095 38.8353C51.4388 38.86 51.4826 38.8699 51.5411 38.8699H51.9067C52.0627 38.8699 52.1699 38.8995 52.2333 38.9588C52.2967 39.0181 52.3308 39.1119 52.3308 39.2502C52.3308 39.3885 52.2918 39.4873 52.2187 39.5515C52.1456 39.6157 52.0286 39.6503 51.8677 39.6503H51.1268V39.4132H51.8239C51.9018 39.4132 51.9603 39.3984 51.9896 39.3786C52.0237 39.3539 52.0383 39.3144 52.0383 39.2601C52.0383 39.2058 52.0237 39.1662 51.9945 39.1415C51.9652 39.1169 51.9165 39.107 51.8434 39.107H51.5168C51.3608 39.107 51.2487 39.0724 51.1804 39.0131C51.1122 38.9489 51.0732 38.8551 51.0732 38.7217C51.0732 38.5785 51.1122 38.4748 51.1853 38.4106C51.2584 38.3414 51.3754 38.3118 51.5411 38.3118H52.2674V38.5489ZM53.101 38.3118H53.4032L53.7054 39.3391L53.9638 38.3118H54.2904L54.5877 39.3391L54.8753 38.3118H55.158L54.7534 39.6503H54.4122L54.1295 38.6476L53.8809 39.6503H53.5446L53.101 38.3118ZM55.5675 38.3118V38.8551H56.0793V38.3118H56.3572V39.6503H56.0793V39.0922H55.5675V39.6503H55.2896V38.3118H55.5675ZM56.5424 38.9687C56.5424 38.7366 56.596 38.5637 56.7081 38.455C56.8154 38.3414 56.9811 38.2822 57.2053 38.2822C57.4296 38.2822 57.5953 38.3414 57.7025 38.455C57.8098 38.5686 57.8634 38.7415 57.8634 38.9786C57.8634 39.2156 57.8098 39.3934 57.7025 39.507C57.5953 39.6206 57.4296 39.6799 57.2053 39.6799C56.9762 39.6799 56.8105 39.6206 56.7033 39.507C56.596 39.3934 56.5424 39.2107 56.5424 38.9687ZM57.2053 38.5143C57.0835 38.5143 56.9957 38.5489 56.9372 38.6279C56.8787 38.702 56.8495 38.8156 56.8495 38.9687C56.8495 39.1317 56.8739 39.2551 56.9324 39.3292C56.9908 39.4083 57.0786 39.4478 57.2053 39.4478C57.3223 39.4478 57.4149 39.4083 57.4734 39.3342C57.5319 39.2551 57.5612 39.1366 57.5612 38.9786C57.5612 38.8205 57.5319 38.702 57.4734 38.6279C57.4149 38.5538 57.3223 38.5143 57.2053 38.5143ZM59.3111 38.539C59.1941 38.539 59.1113 38.5785 59.0625 38.6526C59.0138 38.7267 58.9845 38.8452 58.9845 39.0181C58.9845 39.1613 59.0089 39.265 59.0576 39.3243C59.1064 39.3885 59.1893 39.4181 59.3111 39.4181H59.7693V39.6503H59.2965C59.1941 39.6503 59.1113 39.6404 59.0528 39.6256C58.9943 39.6058 58.9358 39.5762 58.887 39.5317C58.8188 39.4774 58.7652 39.4083 58.7311 39.3193C58.7018 39.2304 58.6823 39.1267 58.6823 39.0033C58.6823 38.7662 58.7311 38.5933 58.8334 38.4797C58.9358 38.3661 59.0918 38.3118 59.3062 38.3118H59.7693V38.539H59.3111ZM60.4859 38.5785L60.2958 39.0922H60.6857L60.4859 38.5785ZM60.3494 38.3118H60.6467L61.2073 39.6503H60.9002L60.7784 39.3292H60.2032L60.0862 39.6503H59.7937L60.3494 38.3118ZM61.2999 38.3118H61.6558L62.1968 39.2749L62.1822 38.3118H62.4649V39.6503H62.1432L61.5729 38.6378L61.5875 39.6503H61.2999V38.3118ZM63.7274 38.5489V38.86H64.132C64.1954 38.86 64.2441 38.8501 64.2734 38.8205C64.3026 38.7958 64.3173 38.7563 64.3173 38.7069C64.3173 38.6526 64.3026 38.6131 64.2734 38.5884C64.2441 38.5637 64.1954 38.5489 64.132 38.5489H63.7274ZM64.1369 39.4132C64.2003 39.4132 64.249 39.3984 64.2783 39.3737C64.3026 39.349 64.3173 39.3095 64.3173 39.2551C64.3173 39.2008 64.3026 39.1613 64.2734 39.1366C64.2441 39.1119 64.2003 39.0971 64.1369 39.0971H63.7274V39.4132H64.1369ZM64.1759 39.6503H63.4496V38.3118H64.1272C64.2149 38.3118 64.2831 38.3167 64.3368 38.3266C64.3904 38.3365 64.4342 38.3513 64.4684 38.3711C64.5171 38.4007 64.5512 38.4402 64.5756 38.4896C64.6049 38.539 64.6146 38.5983 64.6146 38.6575C64.6146 38.7366 64.6 38.7958 64.5707 38.8501C64.5366 38.8995 64.4879 38.944 64.4196 38.9786C64.4879 39.0082 64.5366 39.0477 64.5707 39.0971C64.6049 39.1465 64.6195 39.2107 64.6195 39.2848C64.6195 39.4083 64.5854 39.5021 64.5122 39.5614C64.4391 39.6206 64.327 39.6503 64.1759 39.6503ZM65.1118 38.3118V39.1119C65.1118 39.2354 65.1313 39.3243 65.1801 39.3737C65.2239 39.4231 65.3019 39.4478 65.4092 39.4478C65.5164 39.4478 65.5944 39.4231 65.6383 39.3737C65.6821 39.3243 65.7065 39.2403 65.7065 39.1119V38.3118H65.9843V39.1218C65.9843 39.2156 65.9795 39.2897 65.9649 39.349C65.9551 39.4033 65.9356 39.4478 65.9064 39.4823C65.8527 39.5465 65.7894 39.591 65.7065 39.6206C65.6285 39.6503 65.5261 39.6651 65.4092 39.6651C65.2922 39.6651 65.1898 39.6503 65.1118 39.6206C65.0289 39.591 64.9607 39.5465 64.912 39.4823C64.8827 39.4478 64.8632 39.4033 64.8535 39.349C64.8388 39.2947 64.834 39.2206 64.834 39.1218V38.3118H65.1118ZM66.5449 39.6503H66.2573V38.3118H66.5449V39.6503ZM67.3443 39.6503C67.2225 39.6503 67.1299 39.6404 67.0714 39.6206C67.008 39.5959 66.9544 39.5614 66.9105 39.512C66.8666 39.4626 66.8325 39.4132 66.8179 39.3539C66.7984 39.2947 66.7886 39.2107 66.7886 39.107V38.3118H67.0665V39.0971C67.0665 39.1761 67.0714 39.2304 67.0762 39.265C67.086 39.2947 67.0957 39.3193 67.1152 39.3391C67.1396 39.3737 67.1737 39.3934 67.2127 39.4083C67.2469 39.4231 67.3005 39.428 67.3687 39.428H67.6953V39.6503H67.3443ZM68.446 38.5439H68.1243V39.4181H68.446C68.5678 39.4181 68.6507 39.3836 68.6995 39.3243C68.7482 39.2601 68.7677 39.1465 68.7677 38.9786C68.7677 38.8156 68.7482 38.702 68.6995 38.6378C68.6507 38.5736 68.5678 38.5439 68.446 38.5439ZM67.8464 38.3118H68.4509C68.6653 38.3118 68.8213 38.3661 68.9237 38.4797C69.0212 38.5933 69.0748 38.7662 69.0748 39.0033C69.0748 39.1267 69.0553 39.2304 69.0212 39.3193C68.9871 39.4083 68.9383 39.4774 68.8701 39.5317C68.8164 39.5762 68.7628 39.6058 68.7043 39.6256C68.6458 39.6404 68.563 39.6503 68.4606 39.6503H67.8464V38.3118ZM70.2691 38.5439H69.8401V38.3118H70.9856V38.5439H70.5567V39.6503H70.2691V38.5439ZM71.3951 38.3118V38.8551H71.9069V38.3118H72.1847V39.6503H71.9069V39.0922H71.3951V39.6503H71.1172V38.3118H71.3951ZM73.0037 38.5439C72.9013 38.5439 72.8282 38.5686 72.7746 38.618C72.7258 38.6723 72.6966 38.7514 72.6917 38.8551H73.4619V39.0872H72.6868C72.6917 39.2058 72.7161 39.2897 72.7599 39.3391C72.8087 39.3934 72.8916 39.4181 73.0037 39.4181H73.4619V39.6503H72.989C72.8867 39.6503 72.8038 39.6404 72.7453 39.6256C72.6868 39.6058 72.6283 39.5762 72.5796 39.5317C72.5113 39.4774 72.4626 39.4083 72.4285 39.3193C72.3944 39.2304 72.3749 39.1267 72.3749 39.0033C72.3749 38.7662 72.4285 38.5933 72.526 38.4797C72.6283 38.3661 72.7843 38.3118 72.9988 38.3118H73.4619V38.5439H73.0037ZM74.4173 38.3118H74.7682L75.3093 39.2749L75.2947 38.3118H75.5823V39.6503H75.2606L74.6903 38.6378L74.7 39.6503H74.4173V38.3118ZM76.3671 38.5785L76.1721 39.0922H76.5669L76.3671 38.5785ZM76.2306 38.3118H76.5231L77.0885 39.6503H76.7766L76.6547 39.3292H76.0795L75.9625 39.6503H75.67L76.2306 38.3118ZM77.2981 38.5439H76.874V38.3118H78.0147V38.5439H77.5857V39.6503H77.2981V38.5439ZM78.4436 39.6503H78.1512V38.3118H78.4436V39.6503ZM78.6337 38.9687C78.6337 38.7366 78.6874 38.5637 78.7995 38.455C78.9067 38.3414 79.0724 38.2822 79.2918 38.2822C79.516 38.2822 79.6818 38.3414 79.7939 38.455C79.9011 38.5686 79.9547 38.7415 79.9547 38.9786C79.9547 39.2156 79.9011 39.3934 79.7939 39.507C79.6818 39.6206 79.516 39.6799 79.2918 39.6799C79.0676 39.6799 78.9018 39.6206 78.7946 39.507C78.6874 39.3934 78.6337 39.2107 78.6337 38.9687ZM79.2918 38.5143C79.1748 38.5143 79.0871 38.5489 79.0286 38.6279C78.9652 38.702 78.936 38.8156 78.936 38.9687C78.936 39.1317 78.9652 39.2551 79.0237 39.3292C79.0822 39.4083 79.1699 39.4478 79.2918 39.4478C79.4137 39.4478 79.5063 39.4083 79.5648 39.3342C79.6233 39.2551 79.6525 39.1366 79.6525 38.9786C79.6525 38.8205 79.6233 38.702 79.5648 38.6279C79.5063 38.5538 79.4137 38.5143 79.2918 38.5143ZM80.1448 38.3118H80.4958L81.0369 39.2749L81.0223 38.3118H81.305V39.6503H80.9833L80.4178 38.6378L80.4276 39.6503H80.1448V38.3118Z" fill="black"/>
<path d="M30.4393 32.7703V30.4835H32.1941V30.8737H30.956V31.4121H32.0235V31.8022H30.956V32.7703H30.4393ZM32.6182 32.7703V30.4835H33.7052C33.9782 30.4835 34.178 30.5082 34.2999 30.5477C34.4266 30.5873 34.5241 30.6613 34.5973 30.7651C34.6753 30.8688 34.7094 30.9923 34.7094 31.1256C34.7094 31.2985 34.6558 31.4368 34.5436 31.5504C34.4315 31.664 34.2609 31.7331 34.0367 31.7627C34.1488 31.822 34.2414 31.8813 34.3145 31.9554C34.3877 32.0245 34.4851 32.148 34.607 32.3258L34.919 32.7703H34.2999L33.9294 32.2714C33.7978 32.0936 33.7052 31.9801 33.6565 31.9356C33.6077 31.8911 33.5541 31.8566 33.5005 31.8418C33.4469 31.8269 33.3591 31.8171 33.2421 31.8171H33.1349V32.7703H32.6182ZM33.1349 31.4516H33.52C33.7637 31.4516 33.9197 31.4417 33.9831 31.4219C34.0416 31.4071 34.0903 31.3726 34.1244 31.3281C34.1634 31.2837 34.178 31.2244 34.178 31.1552C34.178 31.0762 34.1537 31.017 34.1098 30.9676C34.0659 30.9231 33.9977 30.8935 33.9148 30.8787C33.871 30.8737 33.7491 30.8737 33.5395 30.8737H33.1349V31.4516ZM35.1871 32.7703V32.3307H35.6794V32.7703H35.1871ZM38.8137 31.9257L39.3158 32.064C39.2378 32.3159 39.1111 32.5036 38.9307 32.6271C38.7552 32.7456 38.5261 32.8098 38.2532 32.8098C37.9119 32.8098 37.6341 32.7061 37.4147 32.4986C37.1954 32.2912 37.0881 32.0047 37.0881 31.6442C37.0881 31.2639 37.2003 30.9725 37.4196 30.7601C37.639 30.5477 37.9266 30.444 38.2824 30.444C38.5992 30.444 38.8527 30.528 39.0477 30.691C39.1647 30.7898 39.2524 30.933 39.3109 31.1157L38.7991 31.2244C38.7699 31.1059 38.7065 31.012 38.609 30.9429C38.5115 30.8737 38.3945 30.8391 38.258 30.8391C38.0679 30.8391 37.9168 30.8984 37.7949 31.0219C37.678 31.1454 37.6195 31.338 37.6195 31.6146C37.6195 31.901 37.678 32.1085 37.7949 32.227C37.9119 32.3505 38.063 32.4147 38.2483 32.4147C38.3848 32.4147 38.5066 32.3752 38.6041 32.2961C38.7016 32.2171 38.7747 32.0936 38.8137 31.9257ZM39.6521 31.6393C39.6521 31.4071 39.6911 31.2145 39.7691 31.0565C39.8276 30.9379 39.9056 30.8342 40.008 30.7404C40.1103 30.6465 40.2176 30.5774 40.3394 30.5329C40.4954 30.4737 40.6807 30.444 40.8903 30.444C41.2656 30.444 41.5678 30.5477 41.7969 30.7601C42.0212 30.9676 42.1333 31.259 42.1333 31.6294C42.1333 31.9998 42.0212 32.2912 41.7969 32.4986C41.5727 32.7061 41.2705 32.8098 40.8951 32.8098C40.5149 32.8098 40.2127 32.7061 39.9885 32.4986C39.7643 32.2912 39.6521 32.0047 39.6521 31.6393ZM40.1835 31.6244C40.1835 31.8862 40.2517 32.0838 40.3833 32.2171C40.5198 32.3505 40.6904 32.4147 40.8951 32.4147C41.0999 32.4147 41.2705 32.3505 41.4021 32.2171C41.5337 32.0838 41.602 31.8862 41.602 31.6195C41.602 31.3577 41.5386 31.1602 41.407 31.0318C41.2802 30.9034 41.1096 30.8391 40.8951 30.8391C40.6807 30.8391 40.5101 30.9034 40.3784 31.0367C40.2517 31.1651 40.1835 31.3627 40.1835 31.6244ZM42.5379 32.7703V30.4835H43.0399L44.088 32.0146V30.4835H44.5705V32.7703H44.049L43.0156 31.2688V32.7703H42.5379ZM46.7495 31.9257L47.2515 32.064C47.1735 32.3159 47.0468 32.5036 46.8664 32.6271C46.691 32.7456 46.4619 32.8098 46.1889 32.8098C45.8477 32.8098 45.5698 32.7061 45.3505 32.4986C45.1311 32.2912 45.0239 32.0047 45.0239 31.6442C45.0239 31.2639 45.1311 30.9725 45.3505 30.7601C45.5698 30.5477 45.8623 30.444 46.2181 30.444C46.5301 30.444 46.7884 30.528 46.9834 30.691C47.1004 30.7898 47.1833 30.933 47.2418 31.1157L46.7348 31.2244C46.7007 31.1059 46.6373 31.012 46.5447 30.9429C46.4472 30.8737 46.3302 30.8391 46.1938 30.8391C46.0036 30.8391 45.8477 30.8984 45.7307 31.0219C45.6137 31.1454 45.5552 31.338 45.5552 31.6146C45.5552 31.901 45.6137 32.1085 45.7307 32.227C45.8477 32.3505 45.9988 32.4147 46.184 32.4147C46.3205 32.4147 46.4375 32.3752 46.5398 32.2961C46.6373 32.2171 46.7056 32.0936 46.7495 31.9257ZM47.6951 32.7703V30.4835H49.5864V30.8737H48.2118V31.3775H49.4889V31.7627H48.2118V32.385H49.6352V32.7703H47.6951ZM50.0593 32.7703V30.4835H50.576V32.7703H50.0593ZM52.7012 31.9257L53.2033 32.064C53.1253 32.3159 52.9986 32.5036 52.8182 32.6271C52.6428 32.7456 52.4136 32.8098 52.1407 32.8098C51.7995 32.8098 51.5216 32.7061 51.3023 32.4986C51.0829 32.2912 50.9757 32.0047 50.9757 31.6442C50.9757 31.2639 51.0829 30.9725 51.3023 30.7601C51.5265 30.5477 51.8141 30.444 52.1699 30.444C52.4868 30.444 52.7402 30.528 52.9352 30.691C53.0522 30.7898 53.1351 30.933 53.1936 31.1157L52.6866 31.2244C52.6525 31.1059 52.594 31.012 52.4965 30.9429C52.399 30.8737 52.282 30.8391 52.1455 30.8391C51.9554 30.8391 51.8043 30.8984 51.6825 31.0219C51.5655 31.1454 51.507 31.338 51.507 31.6146C51.507 31.901 51.5655 32.1085 51.6825 32.227C51.7995 32.3505 51.9506 32.4147 52.1358 32.4147C52.2723 32.4147 52.3893 32.3752 52.4916 32.2961C52.5891 32.2171 52.6622 32.0936 52.7012 31.9257ZM55.9477 32.7703H55.392L55.1726 32.2517H54.1441L53.9345 32.7703H53.3837L54.3781 30.4835H54.924L55.9477 32.7703ZM55.002 31.8615L54.6462 31.017L54.305 31.8615H55.002ZM56.1183 31.6393C56.1183 31.4071 56.1573 31.2145 56.2353 31.0565C56.2938 30.9379 56.3718 30.8342 56.4741 30.7404C56.5716 30.6465 56.6837 30.5774 56.8056 30.5329C56.9616 30.4737 57.1468 30.444 57.3564 30.444C57.7318 30.444 58.034 30.5477 58.2582 30.7601C58.4873 30.9676 58.5994 31.259 58.5994 31.6294C58.5994 31.9998 58.4873 32.2912 58.2631 32.4986C58.0389 32.7061 57.7366 32.8098 57.3613 32.8098C56.9811 32.8098 56.6789 32.7061 56.4546 32.4986C56.2304 32.2912 56.1183 32.0047 56.1183 31.6393ZM56.6496 31.6244C56.6496 31.8862 56.7179 32.0838 56.8495 32.2171C56.986 32.3505 57.1566 32.4147 57.3613 32.4147C57.566 32.4147 57.7366 32.3505 57.8682 32.2171C57.9999 32.0838 58.0681 31.8862 58.0681 31.6195C58.0681 31.3577 58.0047 31.1602 57.8731 31.0318C57.7464 30.9034 57.5758 30.8391 57.3613 30.8391C57.1468 30.8391 56.9762 30.9034 56.8446 31.0367C56.713 31.1651 56.6496 31.3627 56.6496 31.6244ZM59.9935 32.7703V30.4835H61.0806C61.3535 30.4835 61.5534 30.5082 61.6752 30.5477C61.802 30.5873 61.8995 30.6613 61.9726 30.7651C62.0506 30.8688 62.0847 30.9923 62.0847 31.1256C62.0847 31.2985 62.0311 31.4368 61.919 31.5504C61.8069 31.664 61.6363 31.7331 61.412 31.7627C61.5241 31.822 61.6168 31.8813 61.6899 31.9554C61.763 32.0245 61.8605 32.148 61.9823 32.3258L62.2943 32.7703H61.6752L61.3048 32.2714C61.1732 32.0936 61.0806 31.9801 61.0318 31.9356C60.9831 31.8911 60.9343 31.8566 60.8758 31.8418C60.8222 31.8269 60.7345 31.8171 60.6175 31.8171H60.5102V32.7703H59.9935ZM60.5102 31.4516H60.8953C61.1439 31.4516 61.295 31.4417 61.3584 31.4219C61.4169 31.4071 61.4656 31.3726 61.5046 31.3281C61.5388 31.2837 61.5534 31.2244 61.5534 31.1552C61.5534 31.0762 61.5339 31.017 61.4851 30.9676C61.4413 30.9231 61.373 30.8935 61.2902 30.8787C61.2512 30.8737 61.1244 30.8737 60.9148 30.8737H60.5102V31.4516ZM62.4649 31.6393C62.4649 31.4071 62.5039 31.2145 62.5819 31.0565C62.6404 30.9379 62.7184 30.8342 62.8208 30.7404C62.9231 30.6465 63.0304 30.5774 63.1522 30.5329C63.3131 30.4737 63.4934 30.444 63.703 30.444C64.0784 30.444 64.3806 30.5477 64.6097 30.7601C64.8339 30.9676 64.9461 31.259 64.9461 31.6294C64.9461 31.9998 64.8339 32.2912 64.6097 32.4986C64.3855 32.7061 64.0881 32.8098 63.7079 32.8098C63.3277 32.8098 63.0255 32.7061 62.8013 32.4986C62.577 32.2912 62.4649 32.0047 62.4649 31.6393ZM62.9962 31.6244C62.9962 31.8862 63.0645 32.0838 63.201 32.2171C63.3326 32.3505 63.5032 32.4147 63.7079 32.4147C63.9175 32.4147 64.0833 32.3505 64.2149 32.2171C64.3514 32.0838 64.4147 31.8862 64.4147 31.6195C64.4147 31.3577 64.3514 31.1602 64.2197 31.0318C64.093 30.9034 63.9224 30.8391 63.7079 30.8391C63.4983 30.8391 63.3228 30.9034 63.1961 31.0367C63.0645 31.1651 62.9962 31.3627 62.9962 31.6244ZM65.3506 30.4835H66.2914C66.5059 30.4835 66.6668 30.4984 66.7789 30.528C66.9251 30.5675 67.0567 30.6367 67.164 30.7404C67.2712 30.8391 67.3492 30.9626 67.4077 31.1108C67.4613 31.254 67.4906 31.4368 67.4906 31.6491C67.4906 31.8368 67.4613 31.9998 67.4126 32.1381C67.3492 32.3011 67.2566 32.4344 67.1396 32.5382C67.047 32.6172 66.9251 32.6764 66.774 32.7209C66.6619 32.7555 66.5108 32.7703 66.3207 32.7703H65.3506V30.4835ZM65.8673 30.8737V32.385H66.2524C66.3938 32.385 66.501 32.3752 66.5644 32.3604C66.6473 32.3455 66.7155 32.311 66.7691 32.2665C66.8276 32.2221 66.8715 32.148 66.9056 32.0492C66.9397 31.9455 66.9592 31.8072 66.9592 31.6294C66.9592 31.4516 66.9397 31.3182 66.9056 31.2244C66.8715 31.1256 66.8227 31.0565 66.7594 31.0021C66.696 30.9478 66.618 30.9132 66.5205 30.8935C66.4474 30.8787 66.306 30.8737 66.1013 30.8737H65.8673ZM67.9293 32.7703V30.4835H69.0163C69.2893 30.4835 69.4891 30.5082 69.611 30.5477C69.7377 30.5873 69.8352 30.6613 69.9083 30.7651C69.9863 30.8688 70.0204 30.9923 70.0204 31.1256C70.0204 31.2985 69.9668 31.4368 69.8547 31.5504C69.7426 31.664 69.572 31.7331 69.3478 31.7627C69.4599 31.822 69.5525 31.8813 69.6256 31.9554C69.6987 32.0245 69.7962 32.148 69.9181 32.3258L70.23 32.7703H69.611L69.2405 32.2714C69.1089 32.0936 69.0163 31.9801 68.9675 31.9356C68.9188 31.8911 68.8652 31.8566 68.8116 31.8418C68.7579 31.8269 68.6702 31.8171 68.5532 31.8171H68.446V32.7703H67.9293ZM68.446 31.4516H68.8311C69.0748 31.4516 69.2308 31.4417 69.2941 31.4219C69.3526 31.4071 69.4014 31.3726 69.4355 31.3281C69.4696 31.2837 69.4891 31.2244 69.4891 31.1552C69.4891 31.0762 69.4647 31.017 69.4209 30.9676C69.3721 30.9231 69.3088 30.8935 69.2259 30.8787C69.182 30.8737 69.0602 30.8737 68.8505 30.8737H68.446V31.4516ZM70.4884 32.7703V30.4835H71.0051V32.7703H70.4884ZM72.6868 31.9307V31.5454H73.7982V32.4542C73.691 32.548 73.535 32.632 73.3302 32.7061C73.1255 32.7752 72.9159 32.8098 72.7063 32.8098C72.4382 32.8098 72.2042 32.7604 72.0092 32.6616C71.8094 32.5628 71.6583 32.4147 71.5608 32.2319C71.4584 32.0443 71.4097 31.8418 71.4097 31.6195C71.4097 31.3824 71.4682 31.1701 71.5754 30.9824C71.6875 30.7996 71.8533 30.6564 72.0677 30.5576C72.2335 30.4835 72.4333 30.444 72.6771 30.444C72.9939 30.444 73.2425 30.5033 73.4229 30.6218C73.6032 30.7404 73.7153 30.9083 73.7689 31.1157L73.2522 31.2046C73.2181 31.091 73.1499 31.0021 73.0475 30.9379C72.95 30.8737 72.8282 30.8391 72.6771 30.8391C72.4528 30.8391 72.2725 30.9034 72.1409 31.0318C72.0092 31.1602 71.941 31.3479 71.941 31.5997C71.941 31.8714 72.0092 32.0788 72.1457 32.2122C72.2773 32.3455 72.4577 32.4147 72.6722 32.4147C72.7794 32.4147 72.8915 32.3949 72.9988 32.3604C73.106 32.3208 73.1986 32.2764 73.2766 32.2221V31.9307H72.6868ZM74.2759 30.4835H74.7926V31.7232C74.7926 31.9208 74.8023 32.0492 74.8121 32.1035C74.8365 32.1974 74.8852 32.2764 74.9681 32.3307C75.0509 32.39 75.1631 32.4147 75.3093 32.4147C75.4507 32.4147 75.5628 32.39 75.6359 32.3357C75.709 32.2813 75.7529 32.2171 75.7675 32.1381C75.7821 32.0591 75.7919 31.9307 75.7919 31.7479V30.4835H76.3086V31.6887C76.3086 31.9603 76.2939 32.1529 76.2647 32.2665C76.2403 32.3801 76.1867 32.4789 76.1136 32.5579C76.0405 32.632 75.9381 32.6962 75.8114 32.7407C75.6895 32.79 75.5238 32.8098 75.3239 32.8098C75.0802 32.8098 74.895 32.7851 74.7682 32.7357C74.6464 32.6863 74.544 32.6221 74.4709 32.5382C74.3978 32.4591 74.349 32.3752 74.3295 32.2863C74.2954 32.1529 74.2759 31.9603 74.2759 31.7035V30.4835ZM76.8545 32.7703V30.4835H78.7458V30.8737H77.3712V31.3775H78.6532V31.7627H77.3712V32.385H78.7995V32.7703H76.8545ZM79.1017 32.0294L79.6038 31.985C79.633 32.1381 79.6964 32.2468 79.789 32.3159C79.8816 32.385 80.0035 32.4246 80.1594 32.4246C80.3252 32.4246 80.4519 32.39 80.5348 32.3258C80.6177 32.2665 80.6615 32.1924 80.6615 32.1085C80.6615 32.0541 80.642 32.0097 80.6079 31.9702C80.5738 31.9307 80.5104 31.901 80.4227 31.8714C80.3642 31.8516 80.2277 31.8171 80.0132 31.7726C79.7354 31.7084 79.5453 31.6343 79.4331 31.5454C79.2772 31.417 79.1992 31.2639 79.1992 31.0812C79.1992 30.9676 79.2333 30.8589 79.3064 30.7552C79.3795 30.6564 79.4868 30.5774 79.6281 30.5231C79.7646 30.4687 79.9303 30.444 80.1302 30.444C80.447 30.444 80.6908 30.5082 80.8516 30.6367C81.0125 30.7601 81.0954 30.933 81.1051 31.1404L80.5884 31.1602C80.564 31.0416 80.5202 30.9577 80.447 30.9034C80.3739 30.854 80.2667 30.8293 80.1205 30.8293C79.9742 30.8293 79.8572 30.854 79.7744 30.9083C79.7159 30.9478 79.6915 30.9923 79.6915 31.0515C79.6915 31.1059 79.7159 31.1552 79.7695 31.1898C79.8329 31.2392 79.9888 31.2935 80.2423 31.3429C80.4909 31.3973 80.6761 31.4516 80.798 31.5108C80.915 31.5652 81.0125 31.6442 81.0759 31.743C81.1441 31.8418 81.1782 31.9603 81.1782 32.1035C81.1782 32.2369 81.1392 32.3604 81.0564 32.4739C80.9784 32.5875 80.8614 32.6715 80.7103 32.7258C80.564 32.7851 80.3788 32.8098 80.1546 32.8098C79.8329 32.8098 79.5843 32.7456 79.4136 32.6122C79.2382 32.4789 79.1358 32.2863 79.1017 32.0294ZM32.0723 35.4917L32.5743 35.6299C32.4963 35.8818 32.3696 36.0695 32.1892 36.1881C32.0089 36.3115 31.7847 36.3708 31.5117 36.3708C31.1705 36.3708 30.8926 36.2671 30.6733 36.0596C30.4539 35.8522 30.3418 35.5707 30.3418 35.2101C30.3418 34.8298 30.4539 34.5335 30.6733 34.3261C30.8926 34.1137 31.1802 34.01 31.5409 34.01C31.8529 34.01 32.1064 34.089 32.3014 34.2569C32.4183 34.3557 32.5061 34.494 32.5646 34.6767L32.0528 34.7854C32.0235 34.6668 31.9601 34.573 31.8675 34.5088C31.77 34.4397 31.653 34.4051 31.5166 34.4051C31.3265 34.4051 31.1705 34.4644 31.0535 34.5878C30.9365 34.7064 30.878 34.9039 30.878 35.1756C30.878 35.467 30.9365 35.6695 31.0486 35.7929C31.1656 35.9164 31.3167 35.9757 31.5068 35.9757C31.6433 35.9757 31.7603 35.9362 31.8578 35.8621C31.9601 35.7831 32.0284 35.6596 32.0723 35.4917ZM32.9107 35.2052C32.9107 34.9731 32.9497 34.7755 33.0277 34.6175C33.0813 34.5039 33.1641 34.3952 33.2616 34.3063C33.364 34.2125 33.4761 34.1433 33.5931 34.0989C33.754 34.0396 33.9392 34.01 34.1439 34.01C34.5241 34.01 34.8264 34.1137 35.0506 34.3211C35.2748 34.5335 35.3918 34.8249 35.3918 35.1953C35.3918 35.5657 35.2797 35.8522 35.0555 36.0646C34.8312 36.272 34.529 36.3757 34.1537 36.3757C33.7735 36.3757 33.4712 36.272 33.247 36.0646C33.0228 35.8571 32.9107 35.5707 32.9107 35.2052ZM33.442 35.1904C33.442 35.4472 33.5054 35.6448 33.6419 35.7781C33.7735 35.9115 33.9441 35.9806 34.1537 35.9806C34.3584 35.9806 34.529 35.9115 34.6606 35.7831C34.7922 35.6497 34.8605 35.4472 34.8605 35.1854C34.8605 34.9237 34.7922 34.7261 34.6655 34.5977C34.5339 34.4693 34.3633 34.4051 34.1537 34.4051C33.9392 34.4051 33.7686 34.4693 33.637 34.5977C33.5054 34.7311 33.442 34.9286 33.442 35.1904ZM35.8061 36.3362V34.0692H36.3228V35.946H37.6048V36.3362H35.8061ZM37.9899 36.3362V34.0692H38.5066V35.946H39.7886V36.3362H37.9899ZM40.1542 36.3362V34.0495H42.0455V34.4347H40.6709V34.9434H41.9529V35.3287H40.6709V35.946H42.0992V36.3362H40.1542ZM43.7272 35.4966V35.1114H44.8386V36.0201C44.7265 36.114 44.5705 36.1979 44.3658 36.2671C44.1611 36.3412 43.9563 36.3757 43.7419 36.3757C43.4786 36.3757 43.2447 36.3263 43.0448 36.2276C42.845 36.1238 42.6987 35.9806 42.5964 35.7929C42.4989 35.6053 42.4452 35.4028 42.4452 35.1854C42.4452 34.9434 42.5037 34.736 42.6159 34.5483C42.728 34.3656 42.8888 34.2223 43.1033 34.1236C43.269 34.0445 43.4738 34.01 43.7175 34.01C44.0343 34.01 44.2829 34.0692 44.4584 34.1878C44.6388 34.3063 44.7509 34.4693 44.8045 34.6817L44.2878 34.7656C44.2537 34.657 44.1854 34.5681 44.088 34.4989C43.9905 34.4347 43.8637 34.4051 43.7175 34.4051C43.4884 34.4051 43.3129 34.4693 43.1764 34.5977C43.0448 34.7261 42.9814 34.9138 42.9814 35.1657C42.9814 35.4373 43.0448 35.6398 43.1813 35.7781C43.3178 35.9115 43.4933 35.9806 43.7126 35.9806C43.8199 35.9806 43.9271 35.9609 44.0343 35.9213C44.1465 35.8868 44.2391 35.8374 44.3171 35.7831V35.4966H43.7272ZM45.3163 36.3362V34.0495H47.2077V34.4347H45.833V34.9434H47.1102V35.3287H45.833V35.946H47.2564V36.3362H45.3163ZM49.5718 35.2052C49.5718 34.9731 49.6108 34.7755 49.6888 34.6175C49.7473 34.5039 49.8253 34.3952 49.9276 34.3063C50.03 34.2125 50.1372 34.1433 50.2591 34.0989C50.4151 34.0396 50.6003 34.01 50.8099 34.01C51.1853 34.01 51.4875 34.1137 51.7166 34.3211C51.9408 34.5335 52.0529 34.8249 52.0529 35.1953C52.0529 35.5657 51.9408 35.8522 51.7166 36.0646C51.4924 36.272 51.1901 36.3757 50.8148 36.3757C50.4346 36.3757 50.1324 36.272 49.9081 36.0646C49.6839 35.8571 49.5718 35.5707 49.5718 35.2052ZM50.1031 35.1904C50.1031 35.4472 50.1714 35.6448 50.303 35.7781C50.4395 35.9115 50.6101 35.9806 50.8148 35.9806C51.0195 35.9806 51.1901 35.9115 51.3218 35.7831C51.4534 35.6497 51.5216 35.4472 51.5216 35.1854C51.5216 34.9237 51.4582 34.7261 51.3266 34.5977C51.1999 34.4693 51.0293 34.4051 50.8148 34.4051C50.6003 34.4051 50.4297 34.4693 50.2981 34.5977C50.1714 34.7311 50.1031 34.9286 50.1031 35.1904ZM52.4575 36.3362V34.0495H54.2123V34.4347H52.9742V34.978H54.0466V35.3632H52.9742V36.3362H52.4575ZM56.6204 36.3362V34.0495H58.5117V34.4347H57.1371V34.9434H58.4142V35.3287H57.1371V35.946H58.5653V36.3362H56.6204ZM59.004 36.3362V34.0495H59.5012L60.5541 35.5806V34.0495H61.0318V36.3362H60.5151L59.4817 34.8348V36.3362H59.004ZM62.772 35.4966V35.1114H63.8785V36.0201C63.7713 36.114 63.6153 36.1979 63.4106 36.2671C63.2058 36.3412 62.9962 36.3757 62.7866 36.3757C62.5185 36.3757 62.2894 36.3263 62.0896 36.2276C61.8897 36.1238 61.7435 35.9806 61.6411 35.7929C61.5436 35.6053 61.49 35.4028 61.49 35.1854C61.49 34.9434 61.5485 34.736 61.6606 34.5483C61.7727 34.3656 61.9336 34.2223 62.1481 34.1236C62.3138 34.0445 62.5185 34.01 62.7623 34.01C63.0791 34.01 63.3277 34.0692 63.5032 34.1878C63.6836 34.3063 63.7957 34.4693 63.8493 34.6817L63.3326 34.7656C63.2985 34.657 63.2302 34.5681 63.1327 34.4989C63.0304 34.4347 62.9085 34.4051 62.7574 34.4051C62.5332 34.4051 62.3577 34.4693 62.2212 34.5977C62.0896 34.7261 62.0213 34.9138 62.0213 35.1657C62.0213 35.4373 62.0896 35.6398 62.2261 35.7781C62.3626 35.9115 62.538 35.9806 62.7525 35.9806C62.8646 35.9806 62.9719 35.9609 63.0791 35.9213C63.1864 35.8868 63.279 35.8374 63.357 35.7831V35.4966H62.772ZM64.3416 36.3362V34.0495H64.8583V36.3362H64.3416ZM65.3506 36.3362V34.0495H65.8527L66.9056 35.5806V34.0495H67.3833V36.3362H66.8666L65.8283 34.8348V36.3362H65.3506ZM67.9293 36.3362V34.0495H69.8206V34.4347H68.446V34.9434H69.7231V35.3287H68.446V35.946H69.8693V36.3362H67.9293ZM70.3129 36.3362V34.0495H72.2042V34.4347H70.8296V34.9434H72.1067V35.3287H70.8296V35.946H72.253V36.3362H70.3129ZM72.6917 36.3362V34.0495H73.7787C74.0517 34.0495 74.2515 34.0692 74.3734 34.1137C74.5001 34.1532 74.5976 34.2273 74.6707 34.331C74.7487 34.4347 74.7828 34.5533 74.7828 34.6915C74.7828 34.8595 74.7292 35.0027 74.6171 35.1163C74.505 35.225 74.3344 35.299 74.1102 35.3237C74.2223 35.383 74.3149 35.4472 74.388 35.5164C74.4611 35.5855 74.5586 35.709 74.6805 35.8868L74.9925 36.3362H74.3734L74.0029 35.8374C73.8713 35.6596 73.7787 35.546 73.7299 35.5015C73.6812 35.4571 73.6325 35.4225 73.574 35.4077C73.5203 35.3879 73.4326 35.3781 73.3156 35.3781H73.2084V36.3362H72.6917ZM73.2084 35.0175H73.5935C73.8372 35.0175 73.9932 35.0076 74.0565 34.9879C74.115 34.9681 74.1638 34.9385 74.1979 34.894C74.2369 34.8447 74.2515 34.7903 74.2515 34.7212C74.2515 34.6422 74.2271 34.5829 74.1833 34.5335C74.1394 34.4841 74.0712 34.4545 73.9883 34.4446C73.9493 34.4397 73.8226 34.4347 73.613 34.4347H73.2084V35.0175ZM75.2508 36.3362V34.0495H75.7724V36.3362H75.2508ZM76.2647 36.3362V34.0495H76.7619L77.8148 35.5806V34.0495H78.2925V36.3362H77.7758L76.7424 34.8348V36.3362H76.2647ZM80.0327 35.4966V35.1114H81.1392V36.0201C81.032 36.114 80.876 36.1979 80.6713 36.2671C80.4665 36.3412 80.2569 36.3757 80.0473 36.3757C79.7792 36.3757 79.5501 36.3263 79.3503 36.2276C79.1504 36.1238 79.0042 35.9806 78.9018 35.7929C78.8043 35.6053 78.7507 35.4028 78.7507 35.1854C78.7507 34.9434 78.8092 34.736 78.9213 34.5483C79.0334 34.3656 79.1943 34.2223 79.4088 34.1236C79.5745 34.0445 79.7792 34.01 80.023 34.01C80.3398 34.01 80.5884 34.0692 80.7639 34.1878C80.9442 34.3063 81.0564 34.4693 81.11 34.6817L80.5933 34.7656C80.5592 34.657 80.4909 34.5681 80.3934 34.4989C80.2911 34.4347 80.1692 34.4051 80.0181 34.4051C79.7939 34.4051 79.6184 34.4693 79.4819 34.5977C79.3503 34.7261 79.282 34.9138 79.282 35.1657C79.282 35.4373 79.3503 35.6398 79.4868 35.7781C79.6232 35.9115 79.7987 35.9806 80.0181 35.9806C80.1253 35.9806 80.2326 35.9609 80.3398 35.9213C80.447 35.8868 80.5397 35.8374 80.6177 35.7831V35.4966H80.0327Z" fill="black"/>
</g>
<defs>
<clipPath id="clip0_6_13">
<rect width="81" height="39" fill="white" transform="translate(0.5 0.75)"/>
</clipPath>
</defs>
</svg>
