<?xml version="1.0" standalone="no"?>
<!DOCTYPE svg PUBLIC "-//W3C//DTD SVG 20010904//EN"
 "http://www.w3.org/TR/2001/REC-SVG-20010904/DTD/svg10.dtd">
<svg version="1.0" xmlns="http://www.w3.org/2000/svg"
 width="1280.000000pt" height="720.000000pt" viewBox="0 0 1280.000000 720.000000"
 preserveAspectRatio="xMidYMid meet">

<g transform="translate(0.000000,720.000000) scale(0.100000,-0.100000)"
fill="#fff" stroke="none">
<path d="M2343 5212 c-18 -10 -92 -93 -172 -194 -386 -485 -811 -888 -1286
-1218 -71 -50 -138 -100 -147 -111 -10 -12 -18 -38 -18 -58 0 -45 15 -61 160
-161 514 -355 1057 -883 1366 -1327 67 -95 82 -106 146 -106 37 0 52 15 171
168 272 349 639 723 987 1005 132 107 354 269 424 310 75 45 96 82 75 137 -11
28 -30 48 -74 77 -131 86 -348 247 -490 365 -303 252 -743 715 -957 1007 -44
60 -78 96 -101 107 -42 21 -44 20 -84 -1z m137 -418 c57 -18 184 -112 381
-281 237 -202 475 -452 661 -693 116 -151 125 -185 74 -284 -123 -236 -689
-797 -1041 -1032 -115 -77 -170 -84 -262 -34 -211 113 -724 570 -958 853 -168
204 -204 270 -184 343 23 83 181 277 424 519 203 204 362 345 545 484 208 159
232 167 360 125z"/>
<path d="M2349 4740 c-96 -18 -458 -317 -769 -636 -277 -284 -368 -413 -351
-500 29 -154 634 -771 989 -1007 117 -78 159 -93 218 -77 132 37 584 422 861
733 196 220 259 320 250 390 -15 110 -399 550 -717 822 -276 235 -379 295
-481 275z m152 -549 c43 -113 76 -209 73 -213 -3 -4 -31 -8 -63 -8 -32 0 -60
-2 -62 -4 -2 -2 1 -111 6 -241 6 -130 8 -239 6 -241 -2 -2 -40 -4 -84 -4 l-80
0 7 188 c4 103 9 213 13 245 l6 57 -62 0 c-33 0 -61 4 -61 8 0 9 23 77 90 262
23 63 51 142 62 175 11 33 22 67 25 75 3 9 13 -7 26 -40 11 -30 55 -147 98
-259z m-407 -358 c42 -27 76 -51 76 -54 0 -3 -31 -13 -70 -23 -82 -21 -147
-60 -180 -106 l-24 -33 20 -35 c24 -46 81 -75 204 -104 81 -19 122 -23 280
-23 254 0 417 36 495 109 61 58 42 113 -53 161 -46 23 -55 24 -98 15 -26 -6
-48 -9 -50 -7 -9 9 -52 126 -47 130 2 3 23 -1 46 -8 23 -7 90 -23 149 -35 59
-13 105 -27 102 -32 -3 -4 -14 -8 -25 -8 -28 0 -23 -16 10 -29 45 -19 101 -83
107 -122 10 -65 -59 -133 -181 -178 -180 -67 -524 -91 -753 -52 -350 59 -512
181 -415 310 33 44 44 53 110 91 54 32 175 79 205 80 9 0 51 -21 92 -47z m377
-485 c3 -10 24 -495 21 -500 -4 -10 -167 -10 -201 -1 -23 6 -23 8 -17 92 3 47
9 159 12 249 l7 162 88 0 c49 0 89 -1 90 -2z"/>
<path d="M4480 3520 l0 -1250 343 2 342 3 0 1245 0 1245 -342 3 -343 2 0
-1250z"/>
<path d="M5535 4758 c-3 -7 -4 -569 -3 -1248 l3 -1235 953 -3 953 -2 -1 240
-1 240 -607 2 -607 3 0 265 0 265 558 3 557 2 0 240 0 240 -560 0 -560 0 0
260 0 260 610 0 609 0 0 240 0 240 -950 0 c-750 0 -951 -3 -954 -12z"/>
<path d="M7830 3520 l0 -1250 950 0 950 0 0 240 0 240 -605 0 -605 0 0 270 0
270 555 0 555 0 0 240 0 240 -555 0 -555 0 0 260 0 260 605 0 605 0 0 240 0
240 -950 0 -950 0 0 -1250z"/>
<path d="M10120 3520 l0 -1250 950 0 950 0 0 240 0 240 -605 0 -605 0 0 270 0
270 559 0 559 0 -1 238 -2 237 -557 3 -558 2 0 260 0 260 605 0 605 0 0 240 0
240 -950 0 -950 0 0 -1250z"/>
<path d="M3008 2405 c-49 -34 -68 -72 -68 -138 0 -64 26 -110 80 -139 47 -26
148 -21 187 9 89 66 89 201 0 267 -20 15 -46 21 -95 24 -59 3 -71 0 -104 -23z
m153 -20 c64 -34 87 -120 49 -183 -54 -89 -188 -75 -220 24 -22 65 6 135 63
159 42 19 71 18 108 0z"/>
<path d="M3040 2269 c0 -81 2 -90 18 -87 12 2 18 14 20 41 2 20 7 37 11 37 4
0 17 -18 30 -40 14 -25 29 -40 42 -40 24 0 24 2 -1 42 -19 32 -19 32 0 45 27
19 25 58 -2 77 -13 9 -43 16 -70 16 l-48 0 0 -91z m100 42 c0 -11 -9 -21 -22
-25 -35 -9 -38 -8 -38 19 0 21 5 25 30 25 23 0 30 -5 30 -19z"/>
</g>
</svg>
